<svg width="14" height="15" viewBox="0 0 14 15" fill="none" xmlns="http://www.w3.org/2000/svg">
<path fill-rule="evenodd" clip-rule="evenodd" d="M3 14.0352H0V5.03516H3V14.0352Z" fill="#1F1F1F"/>
<path fill-rule="evenodd" clip-rule="evenodd" d="M1.49108 3.03516H1.47404C0.578773 3.03516 0 2.36818 0 1.53464C0 0.683462 0.5964 0.0351562 1.50865 0.0351562C2.42091 0.0351562 2.98269 0.683462 3 1.53464C3 2.36818 2.42091 3.03516 1.49108 3.03516Z" fill="#1F1F1F"/>
<path fill-rule="evenodd" clip-rule="evenodd" d="M13.9999 14.0349H11.0519V9.33051C11.0519 8.14886 10.6253 7.34254 9.55814 7.34254C8.74368 7.34254 8.25855 7.88612 8.04549 8.41114C7.96754 8.5993 7.94841 8.86146 7.94841 9.12426V14.0352H5C5 14.0352 5.03886 6.06699 5 5.24187H7.94841V6.48737C8.33968 5.88864 9.04046 5.03516 10.6057 5.03516C12.5456 5.03516 14 6.29221 14 8.99312L13.9999 14.0349Z" fill="#1F1F1F"/>
</svg>
