<svg width="13" height="12" viewBox="0 0 13 12" fill="none" xmlns="http://www.w3.org/2000/svg">
<path fill-rule="evenodd" clip-rule="evenodd" d="M6.31224 2.96133L6.34042 3.43711L5.87076 3.37885C4.16119 3.15552 2.66767 2.39816 1.39959 1.12617L0.779637 0.495035L0.619952 0.961106C0.281797 2.00006 0.497841 3.09727 1.20233 3.83521C1.57806 4.24302 1.49352 4.30128 0.84539 4.05854C0.619952 3.98086 0.422695 3.9226 0.403908 3.95173C0.338156 4.0197 0.563593 4.90329 0.742064 5.25285C0.986288 5.73834 1.48413 6.21412 2.02893 6.4957L2.4892 6.71903L1.9444 6.72874C1.41838 6.72874 1.39959 6.73845 1.45595 6.94235C1.64381 7.57349 2.38588 8.24347 3.21248 8.53476L3.79486 8.73867L3.28763 9.04938C2.53617 9.49604 1.65321 9.74849 0.770244 9.76791C0.347549 9.77762 0 9.81646 0 9.84559C0 9.94269 1.14597 10.4864 1.81289 10.7001C3.81365 11.3312 6.19013 11.0593 7.97484 9.98153C9.24293 9.21445 10.511 7.69001 11.1028 6.21412C11.4222 5.42762 11.7415 3.99057 11.7415 3.30117C11.7415 2.85452 11.7697 2.79626 12.2957 2.26222C12.6057 1.95151 12.8969 1.61166 12.9532 1.51457C13.0472 1.33008 13.0378 1.33008 12.5587 1.49515C11.7603 1.78644 11.6476 1.7476 12.0421 1.31066C12.3333 0.999946 12.6808 0.436776 12.6808 0.271709C12.6808 0.24258 12.5399 0.291129 12.3803 0.378517C12.2112 0.475616 11.8355 0.621263 11.5537 0.708651L11.0464 0.873718L10.5862 0.553294C10.3325 0.378517 9.9756 0.184321 9.78773 0.126062C9.30868 -0.0098753 8.57601 0.00954437 8.14392 0.164902C6.96977 0.601844 6.2277 1.72818 6.31224 2.96133Z" fill="#1F1F1F"/>
</svg>
