<svg width="47" height="41" viewBox="0 0 47 41" fill="none" xmlns="http://www.w3.org/2000/svg">
<path d="M8.78679 38.0714H19.0368V39.5357H8.78679V38.0714ZM20.5011 38.0714H26.3582V39.5357H20.5011V38.0714ZM27.8225 38.0714H38.0725V39.5357H27.8225V38.0714ZM8.78679 35.1429H10.2511V36.6071H8.78679V35.1429ZM11.7154 35.1429H13.1796V36.6071H11.7154V35.1429ZM14.6439 35.1429H16.1082V36.6071H14.6439V35.1429ZM17.5725 35.1429H19.0368V36.6071H17.5725V35.1429ZM27.8225 35.1429H29.2868V36.6071H27.8225V35.1429ZM30.7511 35.1429H32.2154V36.6071H30.7511V35.1429ZM33.6797 35.1429H35.1439V36.6071H33.6797V35.1429ZM36.6082 35.1429H38.0725V36.6071H36.6082V35.1429ZM4.39285 32.2143H7.32142V39.5357H4.39285V32.2143ZM8.78571 32.2143H19.0357V33.6786H8.78571V32.2143ZM27.8214 32.2143H38.0714V33.6786H27.8214V32.2143ZM39.5357 35.1429V32.2143H42.4643V39.5357H39.5357V35.1429ZM8.78463 29.2857H10.2489V30.75H8.78463V29.2857ZM36.6071 29.2857H38.0714V30.75H36.6071V29.2857ZM20.5 35.1429V19.0357H26.3571V36.6071H20.5V35.1429ZM20.5 16.1071V13.1786H26.3571V17.5714H20.5V16.1071ZM21.9643 8.78571H24.8928V11.7143H21.9643V8.78571ZM22.6964 0V7.32143H20.5V11.7143H19.0357V30.75H11.7143V27.8214H7.32142V30.75H4.39285V27.8214H2.92857V39.5357H0V41H46.8582V39.5357H43.9296V27.8214H42.4654V30.75H39.5368V27.8214H35.1439V30.75H27.8225V11.7143H26.3582V7.32143H24.1618V0H22.6975H22.6964Z" fill="#948A8A"/>
</svg>
